{
	"accessors" : 
	[
		{
			"bufferView" : 2,
			"byteOffset" : 0,
			"componentType" : 5126,
			"count" : 5180,
			"max" : 
			[
				1,
				1,
				1,
				1
			],
			"min" : 
			[
				0,
				0.1219857111573219,
				0.2508402466773987,
				1
			],
			"name" : "accessor_color_m0-PolyPaper21_-878128",
			"type" : "VEC4"
		},
		{
			"bufferView" : 2,
			"byteOffset" : 82880,
			"componentType" : 5126,
			"count" : 1656,
			"max" : 
			[
				0.8751375675201416,
				0.5113978385925293,
				0.6661169528961182,
				1
			],
			"min" : 
			[
				0,
				0.1219857111573219,
				0.2932161688804626,
				1
			],
			"name" : "accessor_color_m2-PolyPaper7_-878140",
			"type" : "VEC4"
		},
		{
			"bufferView" : 0,
			"byteOffset" : 0,
			"componentType" : 5123,
			"count" : 8976,
			"max" : 
			[
				5179
			],
			"min" : 
			[
				0
			],
			"name" : "accessor_indices_0_m0-PolyPaper21_-878128",
			"type" : "SCALAR"
		},
		{
			"bufferView" : 0,
			"byteOffset" : 17952,
			"componentType" : 5123,
			"count" : 3036,
			"max" : 
			[
				1655
			],
			"min" : 
			[
				0
			],
			"name" : "accessor_indices_0_m2-PolyPaper7_-878140",
			"type" : "SCALAR"
		},
		{
			"bufferView" : 1,
			"byteOffset" : 62160,
			"componentType" : 5126,
			"count" : 5180,
			"max" : 
			[
				0.9948428,
				0.9980389,
				0.998428
			],
			"min" : 
			[
				-0.9921588,
				-0.9970449,
				-0.9984285000000001
			],
			"name" : "accessor_normal_m0-PolyPaper21_-878128",
			"type" : "VEC3"
		},
		{
			"bufferView" : 1,
			"byteOffset" : 144192,
			"componentType" : 5126,
			"count" : 1656,
			"max" : 
			[
				0.9981638,
				0.9964684,
				0.9949415
			],
			"min" : 
			[
				-0.9981635,
				-0.9964698,
				-0.9949417
			],
			"name" : "accessor_normal_m2-PolyPaper7_-878140",
			"type" : "VEC3"
		},
		{
			"bufferView" : 1,
			"byteOffset" : 0,
			"componentType" : 5126,
			"count" : 5180,
			"max" : 
			[
				-0.5259153,
				1.808559,
				-0.08099966
			],
			"min" : 
			[
				-1.091037,
				1.60945,
				-0.6529775
			],
			"name" : "accessor_position_m0-PolyPaper21_-878128",
			"type" : "VEC3"
		},
		{
			"bufferView" : 1,
			"byteOffset" : 124320,
			"componentType" : 5126,
			"count" : 1656,
			"max" : 
			[
				-0.5420215,
				1.787439,
				-0.200563
			],
			"min" : 
			[
				-0.7307736,
				1.732708,
				-0.5599258
			],
			"name" : "accessor_position_m2-PolyPaper7_-878140",
			"type" : "VEC3"
		}
	],
	"asset" : 
	{
		"copyright" : "Unknown",
		"generator" : "glTF 1-to-2 Upgrader for Google Blocks",
		"version" : "2.0"
	},
	"bufferViews" : 
	[
		{
			"buffer" : 0,
			"byteLength" : 24024,
			"byteOffset" : 0,
			"name" : "ushortBufferView",
			"target" : 34963
		},
		{
			"buffer" : 0,
			"byteLength" : 164064,
			"byteOffset" : 24024,
			"byteStride" : 12,
			"name" : "vec3BufferView",
			"target" : 34962
		},
		{
			"buffer" : 0,
			"byteLength" : 109376,
			"byteOffset" : 188088,
			"byteStride" : 16,
			"name" : "vec4BufferView",
			"target" : 34962
		}
	],
	"buffers" : 
	[
		{
			"byteLength" : 297464,
			"name" : "model",
			"uri" : "model.bin"
		}
	],
	"materials" : 
	[
		{
			"alphaMode" : "OPAQUE",
			"doubleSided" : false,
			"name" : "BlocksPaper",
			"pbrMetallicRoughness" : 
			{
				"baseColorFactor" : 
				[
					1,
					1,
					1,
					1
				],
				"metallicFactor" : 0,
				"roughnessFactor" : 0.6
			}
		},
		{
			"alphaMode" : "BLEND",
			"doubleSided" : false,
			"name" : "BlocksGlass",
			"pbrMetallicRoughness" : 
			{
				"baseColorFactor" : 
				[
					0.2,
					0.2,
					1,
					0.3
				],
				"metallicFactor" : 1,
				"roughnessFactor" : 0.4
			}
		},
		{
			"alphaMode" : "OPAQUE",
			"doubleSided" : true,
			"name" : "BlocksGem",
			"pbrMetallicRoughness" : 
			{
				"baseColorFactor" : 
				[
					1,
					0.4,
					1,
					1
				],
				"metallicFactor" : 0,
				"roughnessFactor" : 0.1
			}
		}
	],
	"meshes" : 
	[
		{
			"name" : "mesh_m0-PolyPaper21_-878128",
			"primitives" : 
			[
				{
					"attributes" : 
					{
						"COLOR_0" : 0,
						"NORMAL" : 4,
						"POSITION" : 6
					},
					"indices" : 2,
					"material" : 0,
					"mode" : 4
				}
			]
		},
		{
			"name" : "mesh_m2-PolyPaper7_-878140",
			"primitives" : 
			[
				{
					"attributes" : 
					{
						"COLOR_0" : 1,
						"NORMAL" : 5,
						"POSITION" : 7
					},
					"indices" : 3,
					"material" : 0,
					"mode" : 4
				}
			]
		}
	],
	"nodes" : 
	[
		{
			"matrix" : 
			[
				1,
				0,
				0,
				0,
				0,
				1,
				0,
				0,
				0,
				0,
				1,
				0,
				0,
				0,
				0,
				1
			],
			"mesh" : 0,
			"name" : "node_MeshObject-2047913984-PolyPaper21"
		},
		{
			"matrix" : 
			[
				1,
				0,
				0,
				0,
				0,
				1,
				0,
				0,
				0,
				0,
				1,
				0,
				0,
				0,
				0,
				1
			],
			"mesh" : 1,
			"name" : "node_MeshObject1102895104-PolyPaper7"
		}
	],
	"scene" : 0,
	"scenes" : 
	[
		{
			"extras" : {},
			"name" : "defaultScene",
			"nodes" : 
			[
				0,
				1
			]
		}
	]
}